<?xml version="1.0" standalone="no"?>
<!DOCTYPE svg PUBLIC "-//W3C//DTD SVG 20010904//EN"
 "http://www.w3.org/TR/2001/REC-SVG-20010904/DTD/svg10.dtd">
<svg version="1.0" xmlns="http://www.w3.org/2000/svg"
 width="1024.000000pt" height="1024.000000pt" viewBox="0 0 1024.000000 1024.000000"
 preserveAspectRatio="xMidYMid meet">
<metadata>
Created by potrace 1.14, written by Peter Selinger 2001-2017
</metadata>
<g transform="translate(0.000000,1024.000000) scale(0.100000,-0.100000)"
fill="#000000" stroke="none">
<path d="M1669 10236 c-2 -2 -20 -6 -39 -9 -66 -11 -86 -17 -145 -46 -125 -60
-190 -149 -210 -287 -3 -21 -10 -61 -15 -89 -5 -27 -12 -68 -15 -90 -6 -41 -9
-58 -25 -155 -5 -30 -12 -73 -15 -95 -3 -23 -8 -52 -10 -65 -3 -14 -8 -42 -10
-63 -2 -21 -9 -63 -14 -95 -6 -31 -13 -79 -16 -107 -4 -27 -8 -57 -10 -65 -2
-8 -7 -37 -11 -65 -3 -27 -8 -58 -10 -69 -2 -10 -6 -44 -10 -75 -3 -31 -7 -63
-9 -71 -8 -46 -16 -99 -20 -130 -2 -19 -6 -51 -9 -70 -3 -19 -8 -57 -11 -85
-3 -27 -8 -57 -10 -65 -2 -8 -6 -44 -10 -80 -3 -36 -8 -78 -11 -95 -3 -16 -7
-48 -9 -70 -2 -37 -10 -107 -21 -195 -2 -19 -7 -62 -10 -95 -2 -33 -7 -78 -9
-100 -14 -118 -20 -262 -19 -450 0 -191 4 -261 19 -365 3 -19 7 -48 10 -65 2
-16 9 -55 15 -85 7 -30 13 -64 15 -75 9 -49 72 -256 95 -310 73 -171 122 -269
181 -358 22 -32 39 -61 39 -63 0 -3 4 -10 10 -17 5 -7 42 -52 81 -102 76 -96
228 -251 294 -300 22 -17 51 -40 65 -52 14 -13 28 -23 32 -23 3 0 13 -6 20
-13 42 -42 301 -182 418 -227 75 -29 79 -35 74 -103 -6 -77 -14 -228 -14 -244
0 -7 0 -19 0 -25 0 -7 -2 -47 -4 -88 -17 -256 -29 -485 -30 -567 -1 -39 -3
-70 -6 -68 -3 2 -5 -27 -6 -63 0 -37 -4 -123 -7 -192 -10 -168 -17 -311 -21
-393 -2 -37 -6 -70 -9 -74 -4 -3 -2 -13 3 -23 5 -10 7 -20 4 -23 -4 -3 -8 -41
-10 -84 -2 -43 -6 -118 -9 -168 -3 -49 -8 -135 -10 -190 -3 -55 -8 -138 -10
-185 -3 -47 -7 -132 -10 -190 -2 -58 -7 -139 -10 -180 -2 -41 -7 -124 -10
-185 -4 -60 -8 -144 -11 -185 -3 -41 -5 -86 -4 -100 1 -14 1 -29 1 -35 0 -5
-3 -35 -5 -65 -5 -53 -10 -141 -21 -360 -3 -58 -7 -134 -10 -170 -2 -36 -7
-123 -11 -195 -3 -71 -8 -150 -9 -175 -25 -418 -26 -568 -2 -639 46 -137 162
-254 302 -307 47 -18 92 -19 780 -21 l730 -3 75 26 c108 37 199 108 258 203
31 50 63 137 67 186 2 22 4 41 5 43 3 3 2 51 0 55 -2 2 -5 55 -14 262 -4 77
-9 172 -11 210 -7 102 -16 257 -20 360 -2 50 -6 126 -9 170 -10 143 -19 328
-20 417 -1 49 -3 88 -6 88 -3 0 -6 28 -6 63 -1 34 -4 114 -8 177 -4 63 -9 158
-11 210 -3 52 -7 127 -10 165 -3 39 -8 122 -10 185 -3 63 -7 149 -10 190 -6
87 -15 252 -20 360 -15 290 -17 318 -41 732 -4 64 -5 127 -2 147 0 3 -1 8 -2
11 -4 8 -11 132 -26 425 -6 131 -12 220 -14 220 0 0 -3 50 -6 110 -2 61 -6
142 -8 182 -3 67 -2 73 18 79 45 13 283 126 326 154 14 9 53 35 88 58 35 23
68 42 73 42 5 0 9 4 9 9 0 5 15 18 32 29 147 88 445 427 533 607 11 22 22 42
25 45 23 21 146 317 155 370 0 3 3 10 6 15 6 8 15 42 25 90 1 6 9 37 17 70 15
59 23 97 33 165 2 19 7 46 9 60 10 51 18 168 19 252 1 49 4 88 7 88 3 0 4 15
2 33 -2 17 -5 86 -8 152 -3 66 -7 143 -9 170 -17 197 -23 260 -26 260 -1 0 -3
25 -5 55 -2 30 -6 73 -9 95 -3 22 -8 67 -12 100 -3 33 -7 71 -10 85 -2 14 -11
81 -19 150 -23 182 -23 183 -29 210 -2 14 -7 50 -11 80 -4 30 -8 62 -10 71 -1
8 -6 41 -9 71 -4 31 -8 64 -10 74 -5 28 -15 94 -21 139 -3 22 -8 51 -10 65
-10 53 -15 87 -19 130 -3 25 -8 56 -11 70 -3 14 -7 41 -10 60 -3 19 -7 46 -10
60 -2 13 -7 42 -10 65 -3 22 -10 65 -15 95 -5 30 -12 73 -15 95 -3 22 -10 63
-15 90 -6 28 -12 64 -14 80 -14 105 -39 158 -102 220 -48 48 -141 97 -219 116
-76 18 -237 19 -313 1 -127 -28 -228 -90 -283 -172 -42 -62 -65 -152 -46 -177
5 -7 6 -13 1 -13 -10 0 -11 -180 -1 -196 3 -6 4 -14 0 -18 -9 -8 -8 -70 1 -84
4 -7 4 -12 -1 -12 -10 0 -10 -131 1 -148 4 -7 4 -12 -1 -12 -7 0 -7 -62 -3
-285 0 -5 -1 -36 -3 -67 -1 -32 1 -58 6 -58 4 0 5 -5 1 -12 -11 -17 -11 -108
-1 -108 5 0 5 -5 1 -12 -11 -17 -11 -108 -1 -108 5 0 5 -5 1 -12 -10 -15 -9
-111 0 -127 4 -6 4 -11 -1 -11 -10 0 -10 -131 1 -148 4 -7 4 -12 -1 -12 -10 0
-10 -221 1 -238 4 -6 3 -12 -1 -12 -5 0 -7 -26 -6 -57 2 -32 3 -62 3 -68 0 -5
-1 -36 -3 -67 -1 -32 1 -58 6 -58 4 0 5 -5 1 -12 -10 -16 -11 -169 -1 -175 4
-2 4 -9 1 -15 -11 -17 -10 -218 0 -218 5 0 4 -6 -1 -12 -5 -7 -7 -35 -6 -63 2
-27 3 -56 3 -62 0 -13 0 -92 0 -115 0 -7 -1 -31 -3 -53 -2 -22 1 -48 5 -57 6
-12 5 -18 -2 -18 -6 0 -8 -5 -5 -10 11 -18 -5 -48 -33 -59 -28 -11 -79 -23
-97 -22 -97 3 -166 19 -180 41 -4 7 -9 42 -11 79 -6 126 -15 275 -19 351 -7
99 -14 224 -20 335 -7 147 -14 274 -21 370 -3 50 -7 135 -9 190 -2 55 -5 100
-5 100 -1 0 -4 32 -5 70 -9 176 -12 223 -19 233 -3 6 -2 13 4 17 6 4 8 10 6
14 -3 4 -8 50 -11 102 -3 52 -7 123 -10 159 -5 68 -14 224 -20 350 -2 41 -6
118 -10 170 -3 52 -7 138 -10 191 -7 152 -28 217 -94 286 -45 47 -149 105
-216 119 -133 29 -349 20 -400 -16 -5 -3 -26 -13 -45 -20 -101 -40 -192 -146
-205 -240 -4 -25 -8 -74 -10 -109 -2 -35 -7 -109 -10 -165 -3 -56 -8 -137 -10
-181 -2 -44 -7 -123 -10 -175 -7 -115 -13 -230 -20 -370 -3 -58 -8 -136 -10
-175 -3 -38 -7 -113 -10 -165 -2 -52 -7 -133 -10 -180 -11 -200 -16 -280 -20
-360 -2 -47 -6 -125 -10 -175 -8 -129 -14 -226 -20 -335 -2 -52 -7 -142 -10
-200 -7 -122 -14 -239 -14 -258 -1 -7 -19 -21 -41 -31 -48 -21 -198 -22 -242
-1 -28 13 -54 65 -37 75 5 4 5 13 -1 25 -6 12 -7 21 0 25 6 4 6 15 0 30 -5 14
-6 25 -1 25 5 0 5 16 1 35 -4 20 -4 38 1 41 5 3 4 15 -3 27 -6 12 -11 22 -11
22 0 0 5 10 11 22 8 14 8 24 2 28 -6 4 -6 15 0 30 6 16 6 25 0 25 -6 0 -6 9 0
25 6 15 6 26 0 30 -7 4 -6 13 0 25 6 12 7 21 0 25 -6 4 -6 15 0 30 6 16 6 25
0 25 -6 0 -6 10 0 26 6 16 6 32 1 43 -5 9 -6 23 -1 31 4 7 4 24 -1 37 -5 14
-5 23 1 23 6 0 6 9 0 24 -5 13 -6 26 -3 29 7 8 7 133 -1 146 -4 6 -3 11 3 11
7 0 7 8 1 25 -6 15 -6 26 0 30 7 4 6 13 0 25 -6 12 -7 21 0 25 6 3 6 15 0 29
-5 13 -7 26 -4 28 8 8 10 99 3 104 -4 2 -4 17 1 32 4 16 4 35 -1 43 -4 8 -4
21 1 29 4 7 4 24 -1 37 -5 14 -5 23 1 23 6 0 6 9 0 24 -5 13 -6 26 -3 29 7 8
7 133 -1 146 -4 6 -3 11 3 11 7 0 7 8 1 25 -6 15 -6 26 0 30 7 4 6 13 0 25 -6
12 -7 21 0 25 6 3 6 15 0 29 -5 13 -7 26 -4 28 8 8 10 99 3 104 -4 2 -4 17 1
32 4 16 4 35 -1 43 -4 8 -4 21 1 29 4 7 4 24 -1 37 -5 14 -5 23 1 23 6 0 6 9
0 24 -5 13 -6 26 -3 29 7 8 7 133 -1 146 -4 6 -3 11 3 11 7 0 7 8 1 25 -6 15
-6 26 0 30 7 4 6 13 0 25 -6 12 -7 21 0 25 6 3 6 15 0 29 -5 13 -7 26 -4 28 8
8 10 99 3 104 -4 2 -4 17 1 32 4 16 4 35 -1 43 -4 8 -4 21 1 29 4 7 4 24 -1
37 -5 14 -5 23 1 23 6 0 6 9 1 23 -5 13 -5 30 -1 37 5 8 4 22 -1 31 -6 11 -5
20 1 24 7 4 7 12 0 25 -7 13 -7 21 0 25 6 4 7 11 4 17 -4 5 -8 25 -10 43 -8
90 -95 197 -196 243 -16 6 -38 17 -50 22 -46 21 -136 36 -225 38 -50 0 -92 -1
-94 -2z"/>
<path d="M8668 10234 c-3 -2 -22 -6 -44 -8 -21 -3 -39 -5 -39 -6 0 -1 -17 -4
-38 -6 -49 -6 -268 -72 -284 -86 -7 -6 -13 -8 -13 -5 0 7 -88 -31 -172 -74
-32 -16 -58 -25 -58 -21 0 4 -4 2 -8 -4 -4 -5 -38 -27 -77 -49 -38 -21 -89
-51 -112 -67 -23 -15 -46 -28 -52 -28 -5 0 -15 -8 -20 -17 -6 -10 -11 -14 -11
-10 0 4 -6 3 -12 -3 -15 -12 -75 -57 -114 -85 -27 -19 -127 -99 -151 -120 -6
-5 -33 -28 -59 -50 -47 -40 -273 -263 -330 -326 -68 -75 -152 -179 -226 -279
-43 -58 -81 -109 -86 -115 -28 -37 -92 -136 -92 -144 0 -6 -6 -14 -12 -18 -7
-4 -22 -24 -32 -43 -10 -19 -43 -77 -72 -128 -77 -134 -214 -418 -214 -442 0
-7 -6 -24 -14 -38 -18 -35 -46 -104 -50 -122 -2 -8 -6 -22 -9 -30 -48 -127
-132 -455 -139 -538 -1 -19 -6 -36 -10 -38 -5 -3 -6 -9 -3 -14 2 -4 1 -32 -4
-61 -15 -86 -22 -175 -26 -311 -2 -71 -7 -132 -10 -138 -3 -5 -3 -10 2 -10 4
0 8 -37 9 -83 2 -129 19 -293 40 -382 1 -5 5 -30 9 -55 31 -206 150 -543 277
-790 79 -153 216 -371 294 -469 158 -200 176 -220 309 -360 112 -117 127 -131
137 -131 5 0 6 -5 3 -10 -3 -5 -2 -10 4 -10 5 0 24 -15 43 -32 55 -54 227
-200 272 -233 l28 -20 -7 -90 c-4 -49 -9 -112 -11 -140 -3 -27 -6 -72 -8 -100
-4 -50 -13 -168 -22 -260 -2 -27 -7 -81 -9 -120 -12 -154 -14 -174 -19 -236
-7 -78 -15 -179 -21 -256 -2 -32 -7 -83 -9 -113 -5 -53 -12 -135 -21 -265 -9
-112 -15 -167 -21 -176 -3 -5 0 -9 6 -9 6 0 8 -5 4 -11 -7 -12 -9 -27 -18
-159 -4 -47 -8 -105 -11 -130 -7 -81 -15 -174 -21 -250 -3 -41 -7 -97 -9 -125
-2 -27 -6 -81 -9 -120 -3 -38 -8 -99 -12 -135 -3 -36 -8 -83 -9 -105 -13 -164
-16 -206 -20 -250 -2 -27 -7 -84 -10 -125 -3 -41 -8 -100 -11 -130 -3 -30 -7
-84 -9 -120 -2 -36 -4 -65 -5 -65 -4 0 -14 -172 -14 -245 -1 -88 4 -121 25
-180 22 -65 124 -200 149 -200 6 0 10 -4 10 -10 0 -5 5 -10 11 -10 7 0 17 -6
23 -14 6 -7 43 -27 81 -42 l70 -29 645 -2 c585 -2 651 -1 705 15 75 21 158 68
209 119 41 39 104 132 112 161 2 9 11 42 19 72 13 48 15 585 14 4755 0 4201
-2 4706 -16 4759 -38 146 -161 279 -308 331 -46 16 -275 32 -287 19z"/>
</g>
</svg>
